<svg width="40" height="40" viewBox="0 0 40 40" fill="none" xmlns="http://www.w3.org/2000/svg">
<circle cx="20" cy="20" r="19.6875" fill="#FAFAFA" stroke="#252525" stroke-width="0.625"/>
<path d="M13.445 22.27C13.4983 22.27 13.545 22.2917 13.585 22.335L13.97 22.75C13.6767 23.09 13.32 23.355 12.9 23.545C12.4833 23.735 11.9783 23.83 11.385 23.83C10.8717 23.83 10.405 23.7417 9.985 23.565C9.565 23.385 9.20667 23.135 8.91 22.815C8.61333 22.4917 8.38333 22.105 8.22 21.655C8.05667 21.205 7.975 20.71 7.975 20.17C7.975 19.63 8.06 19.135 8.23 18.685C8.4 18.235 8.63833 17.8483 8.945 17.525C9.255 17.2017 9.625 16.9517 10.055 16.775C10.485 16.595 10.96 16.505 11.48 16.505C11.99 16.505 12.44 16.5867 12.83 16.75C13.22 16.9133 13.5633 17.135 13.86 17.415L13.54 17.86C13.52 17.8933 13.4933 17.9217 13.46 17.945C13.43 17.965 13.3883 17.975 13.335 17.975C13.275 17.975 13.2017 17.9433 13.115 17.88C13.0283 17.8133 12.915 17.74 12.775 17.66C12.635 17.58 12.46 17.5083 12.25 17.445C12.04 17.3783 11.7817 17.345 11.475 17.345C11.105 17.345 10.7667 17.41 10.46 17.54C10.1533 17.6667 9.88833 17.8517 9.665 18.095C9.445 18.3383 9.27333 18.635 9.15 18.985C9.02667 19.335 8.965 19.73 8.965 20.17C8.965 20.6167 9.02833 21.015 9.155 21.365C9.285 21.715 9.46 22.0117 9.68 22.255C9.90333 22.495 10.165 22.6783 10.465 22.805C10.7683 22.9317 11.095 22.995 11.445 22.995C11.6583 22.995 11.85 22.9833 12.02 22.96C12.1933 22.9333 12.3517 22.8933 12.495 22.84C12.6417 22.7867 12.7767 22.72 12.9 22.64C13.0267 22.5567 13.1517 22.4583 13.275 22.345C13.3317 22.295 13.3883 22.27 13.445 22.27ZM16.922 18.605C17.292 18.605 17.6254 18.6667 17.922 18.79C18.2187 18.9133 18.472 19.0883 18.682 19.315C18.892 19.5417 19.052 19.8167 19.162 20.14C19.2754 20.46 19.332 20.8183 19.332 21.215C19.332 21.615 19.2754 21.975 19.162 22.295C19.052 22.615 18.892 22.8883 18.682 23.115C18.472 23.3417 18.2187 23.5167 17.922 23.64C17.6254 23.76 17.292 23.82 16.922 23.82C16.5487 23.82 16.212 23.76 15.912 23.64C15.6154 23.5167 15.362 23.3417 15.152 23.115C14.942 22.8883 14.7804 22.615 14.667 22.295C14.557 21.975 14.502 21.615 14.502 21.215C14.502 20.8183 14.557 20.46 14.667 20.14C14.7804 19.8167 14.942 19.5417 15.152 19.315C15.362 19.0883 15.6154 18.9133 15.912 18.79C16.212 18.6667 16.5487 18.605 16.922 18.605ZM16.922 23.125C17.422 23.125 17.7954 22.9583 18.042 22.625C18.2887 22.2883 18.412 21.82 18.412 21.22C18.412 20.6167 18.2887 20.1467 18.042 19.81C17.7954 19.4733 17.422 19.305 16.922 19.305C16.6687 19.305 16.447 19.3483 16.257 19.435C16.0704 19.5217 15.9137 19.6467 15.787 19.81C15.6637 19.9733 15.5704 20.175 15.507 20.415C15.447 20.6517 15.417 20.92 15.417 21.22C15.417 21.82 15.5404 22.2883 15.787 22.625C16.037 22.9583 16.4154 23.125 16.922 23.125ZM26.7246 20.17C26.7246 20.7067 26.6396 21.195 26.4696 21.635C26.2996 22.075 26.0596 22.4517 25.7496 22.765C25.4396 23.0783 25.0663 23.3217 24.6296 23.495C24.1963 23.665 23.7163 23.75 23.1896 23.75H20.5146V16.585H23.1896C23.7163 16.585 24.1963 16.6717 24.6296 16.845C25.0663 17.015 25.4396 17.2583 25.7496 17.575C26.0596 17.8883 26.2996 18.265 26.4696 18.705C26.6396 19.145 26.7246 19.6333 26.7246 20.17ZM25.7296 20.17C25.7296 19.73 25.6696 19.3367 25.5496 18.99C25.4296 18.6433 25.2596 18.35 25.0396 18.11C24.8196 17.87 24.5529 17.6867 24.2396 17.56C23.9263 17.4333 23.5763 17.37 23.1896 17.37H21.4846V22.965H23.1896C23.5763 22.965 23.9263 22.9017 24.2396 22.775C24.5529 22.6483 24.8196 22.4667 25.0396 22.23C25.2596 21.99 25.4296 21.6967 25.5496 21.35C25.6696 21.0033 25.7296 20.61 25.7296 20.17ZM31.2337 20.665C31.2337 20.4583 31.2037 20.27 31.1437 20.1C31.087 19.9267 31.002 19.7783 30.8887 19.655C30.7787 19.5283 30.6437 19.4317 30.4837 19.365C30.3237 19.295 30.142 19.26 29.9387 19.26C29.512 19.26 29.1737 19.385 28.9237 19.635C28.677 19.8817 28.5237 20.225 28.4637 20.665H31.2337ZM31.9537 23.04C31.8437 23.1733 31.712 23.29 31.5587 23.39C31.4053 23.4867 31.2403 23.5667 31.0637 23.63C30.8903 23.6933 30.7103 23.74 30.5237 23.77C30.337 23.8033 30.152 23.82 29.9687 23.82C29.6187 23.82 29.2953 23.7617 28.9987 23.645C28.7053 23.525 28.4503 23.3517 28.2337 23.125C28.0203 22.895 27.8537 22.6117 27.7337 22.275C27.6137 21.9383 27.5537 21.5517 27.5537 21.115C27.5537 20.7617 27.607 20.4317 27.7137 20.125C27.8237 19.8183 27.9803 19.5533 28.1837 19.33C28.387 19.1033 28.6353 18.9267 28.9287 18.8C29.222 18.67 29.552 18.605 29.9187 18.605C30.222 18.605 30.502 18.6567 30.7587 18.76C31.0187 18.86 31.242 19.0067 31.4287 19.2C31.6187 19.39 31.767 19.6267 31.8737 19.91C31.9803 20.19 32.0337 20.51 32.0337 20.87C32.0337 21.01 32.0187 21.1033 31.9887 21.15C31.9587 21.1967 31.902 21.22 31.8187 21.22H28.4337C28.4437 21.54 28.487 21.8183 28.5637 22.055C28.6437 22.2917 28.7537 22.49 28.8937 22.65C29.0337 22.8067 29.2003 22.925 29.3937 23.005C29.587 23.0817 29.8037 23.12 30.0437 23.12C30.267 23.12 30.4587 23.095 30.6187 23.045C30.782 22.9917 30.922 22.935 31.0387 22.875C31.1553 22.815 31.252 22.76 31.3287 22.71C31.4087 22.6567 31.477 22.63 31.5337 22.63C31.607 22.63 31.6637 22.6583 31.7037 22.715L31.9537 23.04Z" fill="#252525"/>
</svg>
